<?xml version="1.0" encoding="utf-8"?>
<!-- Generator: Adobe Illustrator 25.3.1, SVG Export Plug-In . SVG Version: 6.00 Build 0)  -->
<svg version="1.1" id="图层_1" xmlns="http://www.w3.org/2000/svg" xmlns:xlink="http://www.w3.org/1999/xlink" x="0px" y="0px"
	 viewBox="0 0 92 28" style="enable-background:new 0 0 92 28;" xml:space="preserve">
<style type="text/css">
	.st0{fill:none;}
	.st1{fill-rule:evenodd;clip-rule:evenodd;}
	.st2{fill-rule:evenodd;clip-rule:evenodd;fill:#FF6A00;}
	.st3{fill-rule:evenodd;clip-rule:evenodd;fill:#F0B706;}
	.st4{fill-rule:evenodd;clip-rule:evenodd;fill:#FFFFFF;}
</style>
<g id="试卷库">
	<g id="logo" transform="translate(-71.000000, -1920.000000)">
		<g transform="translate(71.000000, 1920.000000)">
			<rect id="矩形" y="0" class="st0" width="92" height="28"/>
			<g id="编组-56" transform="translate(2.000000, 2.000000)">
				<g id="编组-55" transform="translate(33.918355, 3.500000)">
					<polygon class="st1" points="54.1,0 54.1,17 52,17 50.7,16 50.7,15 52,15 52,2 40.5,2 40.5,17 38.5,17 38.5,0 					"/>
					<polygon class="st1" points="45.8,8.4 44.4,11.4 45.8,14.3 44.2,14.3 43.6,13.1 43.1,14.3 41.4,14.3 41.4,12.6 42.2,12.6 
						42.7,11.4 41.4,8.7 41.4,3.3 43.1,3.3 43.1,8.7 43.5,9.6 44.1,8.4 44.1,3.3 45.8,3.3 					"/>
					<polygon class="st1" points="51.2,8.4 49.8,11.4 51.2,14.3 49.7,14.3 49.1,13.1 48.5,14.3 46.8,14.3 46.8,12.6 47.6,12.6 
						48.2,11.3 46.8,8.7 46.8,3.3 48.5,3.3 48.5,8.7 48.9,9.6 49.5,8.4 49.5,3.3 51.2,3.3 					"/>
					<polygon id="Fill-14" class="st1" points="32,5.8 32,12.2 30,14.3 27,14.3 27,12.2 30,12.2 30,5.8 					"/>
					<polygon class="st1" points="24.3,10.2 24.3,14.7 23.9,14.3 22.2,14.3 22.2,10.2 					"/>
					<polygon id="Fill-18" class="st1" points="27,2 35.1,2 35.1,0 27,0 					"/>
					<polygon class="st1" points="34.8,3.1 34.8,11.2 32.7,11.2 32.7,5.1 29.3,5.1 29.3,11.2 27.3,11.2 27.3,3.1 					"/>
					<rect x="24.3" y="10.9" class="st1" width="1.7" height="2"/>
					<rect x="18.8" y="7.8" class="st1" width="7.5" height="2"/>
					<polygon class="st1" points="23.6,6.8 25.6,6.8 25.6,6.8 					"/>
					<path class="st1" d="M19.5,0v6.8h6.1V0H19.5z M23.6,5.1h-2v-1h2V2.7h-2v-1h2V5.1z"/>
					<polygon class="st1" points="19.5,6.8 21.5,6.8 21.5,6.8 					"/>
					<polygon class="st1" points="21.5,10.2 21.5,15 21.3,15.3 19.5,17 18.8,17 18.8,15 19.5,14.3 19.5,10.2 					"/>
					<polygon id="Fill-28" class="st1" points="34.8,12.2 34.8,14.3 31.4,14.3 33.4,12.2 					"/>
					<polygon id="Fill-29" class="st1" points="33.7,1 31.7,3.1 29.7,3.1 31.7,1 					"/>
					<polygon class="st1" points="35.1,14.9 33.1,17 22.5,17 21.3,15.3 21.5,15 21.5,14.3 23.9,14.3 24.3,14.7 24.4,14.9 					"/>
					<polygon class="st1" points="16,4.7 13.6,4.7 14.2,14.9 15.9,14.9 15.9,16 14.6,17 12.2,17 11.5,4.7 4.1,4.7 4.1,2.7 11.4,2.7 
						11.2,0 13.2,0 13.4,2.7 16,2.7 					"/>
					<polygon id="Fill-32" class="st1" points="0,2 3.1,2 3.1,0 0,0 					"/>
					<polygon class="st1" points="3.5,14.9 3.5,17 1,17 1,4.8 0,4.8 0,2.7 3.1,2.7 3.1,14.9 					"/>
					<polygon class="st1" points="8.5,14.5 10.9,14.3 10.9,16.3 4.4,17 4.4,14.9 6.4,14.7 6.4,7.8 4.4,7.8 4.4,5.8 10.9,5.8 11,7.8 
						8.5,7.8 					"/>
					<polygon id="Fill-40" class="st1" points="15.9,2 14,2 13.9,0 15.9,0 					"/>
				</g>
				<g id="编组">
					<polygon id="Fill-30_1_" class="st2" points="3.7,0 3.7,22.2 12,21.6 15.7,21.3 24,20.8 24,1.4 					"/>
					<polygon id="Fill-31_1_" class="st3" points="0,1 0,20.4 1.8,21.3 1.8,0.5 					"/>
					<polygon id="Fill-32_1_" class="st4" points="3.7,0 1.8,0.5 1.8,21.3 3.7,22.2 					"/>
					<polygon id="Fill-33_1_" class="st3" points="3.7,22.2 3.7,24 24,22.6 24,20.8 					"/>
					<polygon id="Fill-34_1_" class="st3" points="0,22.3 1.8,23.1 3.7,24 3.7,22.2 1.8,21.3 0,20.4 					"/>
					<polygon id="Fill-35_1_" class="st4" points="20.2,8.9 10,8.9 10,5.3 20.2,5.9 					"/>
					<polygon id="Fill-36_1_" class="st4" points="17,9.9 17,17.4 13.3,17.6 13.3,8.9 					"/>
				</g>
			</g>
		</g>
	</g>
</g>
</svg>
