<?xml version="1.0" standalone="no"?><!DOCTYPE svg PUBLIC "-//W3C//DTD SVG 1.1//EN" "http://www.w3.org/Graphics/SVG/1.1/DTD/svg11.dtd"><svg t="1750577950459" class="icon" viewBox="0 0 1024 1024" version="1.1" xmlns="http://www.w3.org/2000/svg" p-id="6961" width="32" height="32" xmlns:xlink="http://www.w3.org/1999/xlink"><path d="M648.533333 0a273.066667 273.066667 0 0 1 273.066667 273.066667v682.666666a68.266667 68.266667 0 0 1-68.266667 68.266667H307.2a204.8 204.8 0 0 1-204.8-204.8V68.266667a68.266667 68.266667 0 0 1 68.266667-68.266667h477.866666z m0 68.266667H204.8a34.133333 34.133333 0 0 0-34.133333 34.133333v716.8a136.533333 136.533333 0 0 0 136.533333 136.533333h512a34.133333 34.133333 0 0 0 34.133333-34.133333V273.066667a204.8 204.8 0 0 0-204.8-204.8z m-170.666666 307.2a34.133333 34.133333 0 0 1 0 68.266666h-136.533334a34.133333 34.133333 0 0 1 0-68.266666h136.533334z m136.533333-170.666667a34.133333 34.133333 0 0 1 0 68.266667h-273.066667a34.133333 34.133333 0 1 1 0-68.266667h273.066667z" fill="#2D7CFF" p-id="6962"></path><path d="M0 477.866667m68.266667 0l887.466666 0q68.266667 0 68.266667 68.266666l0 238.933334q0 68.266667-68.266667 68.266666l-887.466666 0q-68.266667 0-68.266667-68.266666l0-238.933334q0-68.266667 68.266667-68.266666Z" fill="#2D7CFF" p-id="6963"></path><path d="M428.3392 785.066667v-29.7984h-101.717333l101.717333-161.8944v-27.0336H292.522667v29.7984h96.768l-101.034667 160.3584V785.066667h140.0832z m107.178667 0v-218.7264h-33.1776V785.066667h33.211733z m121.0368 0v-86.016h49.800533c42.666667 0 70.0416-28.2624 70.0416-66.3552s-27.3408-66.3552-70.0416-66.3552h-82.944V785.066667h33.143467z m47.957333-116.1216h-47.957333v-72.8064h47.957333c23.005867 0 38.673067 13.5168 38.673067 36.5568 0 23.04-15.6672 36.2496-38.673067 36.2496z" fill="#FFFFFF" p-id="6964"></path></svg>